<mxfile host="drawio-plugin" modified="2022-04-12T06:22:13.961Z" agent="5.0 (X11; Linux x86_64) AppleWebKit/537.36 (KHTML, like Gecko) Chrome/89.0.4389.114 Safari/537.36" version="15.5.4" etag="yvecWDsGlv2y9ijXMquW" type="embed"><diagram id="pLt6Od_85nNrMB5Svo1V" name="Page-1"><mxGraphModel dx="483" dy="358" grid="1" gridSize="10" guides="1" tooltips="1" connect="1" arrows="1" fold="1" page="1" pageScale="1" pageWidth="850" pageHeight="1100" math="0" shadow="0"><root><mxCell id="0"/><mxCell id="1" parent="0"/><mxCell id="15" value="" style="aspect=fixed;perimeter=ellipsePerimeter;html=1;align=center;shadow=0;dashed=0;spacingTop=3;image;image=img/lib/active_directory/database_partition_2.svg;" parent="1" vertex="1"><mxGeometry x="340" y="70" width="50" height="37" as="geometry"/></mxCell><mxCell id="16" value="celloscope&lt;br style=&quot;font-size: 25px;&quot;&gt;" style="text;html=1;align=center;verticalAlign=middle;resizable=0;points=[];autosize=1;strokeColor=none;fillColor=none;fontSize=25;fontStyle=1" parent="1" vertex="1"><mxGeometry x="398" y="68.5" width="140" height="40" as="geometry"/></mxCell><mxCell id="24" value="" style="shape=image;verticalLabelPosition=bottom;labelBackgroundColor=#ffffff;verticalAlign=top;aspect=fixed;imageAspect=0;image=data:image/jpeg,/9j/4AAQSkZJRgABAQEASABIAAD/4SFkRXhpZgAASUkqAAgAAAAHABIBAwABAAAAAQAAABoBBQABAAAAYgAAABsBBQABAAAAagAAACgBAwABAAAAAgAAADEBAgANAAAAcgAAADIBAgAUAAAAgAAAAGmHBAABAAAAlAAAAKYAAABIAAAAAQAAAEgAAAABAAAAR0lNUCAyLjEwLjMwAAAyMDIyOjA0OjEyIDEyOjIwOjEzAAEAAaADAAEAAAABAAAAAAAAAAkA/gAEAAEAAAABAAAAAAEEAAEAAAAAAQAAAQEEAAEAAAClAAAAAgEDAAMAAAAYAQAAAwEDAAEAAAAGAAAABgEDAAEAAAAGAAAAFQEDAAEAAAADAAAAAQIEAAEAAAAeAQAAAgIEAAEAAAA+IAAAAAAAAAgACAAIAP/Y/+AAEEpGSUYAAQEAAAEAAQAA/9sAQwAIBgYHBgUIBwcHCQkICgwUDQwLCwwZEhMPFB0aHx4dGhwcICQuJyAiLCMcHCg3KSwwMTQ0NB8nOT04MjwuMzQy/9sAQwEJCQkMCwwYDQ0YMiEcITIyMjIyMjIyMjIyMjIyMjIyMjIyMjIyMjIyMjIyMjIyMjIyMjIyMjIyMjIyMjIyMjIy/8AAEQgApQEAAwEiAAIRAQMRAf/EAB8AAAEFAQEBAQEBAAAAAAAAAAABAgMEBQYHCAkKC//EALUQAAIBAwMCBAMFBQQEAAABfQECAwAEEQUSITFBBhNRYQcicRQygZGhCCNCscEVUtHwJDNicoIJChYXGBkaJSYnKCkqNDU2Nzg5OkNERUZHSElKU1RVVldYWVpjZGVmZ2hpanN0dXZ3eHl6g4SFhoeIiYqSk5SVlpeYmZqio6Slpqeoqaqys7S1tre4ubrCw8TFxsfIycrS09TV1tfY2drh4uPk5ebn6Onq8fLz9PX29/j5+v/EAB8BAAMBAQEBAQEBAQEAAAAAAAABAgMEBQYHCAkKC//EALURAAIBAgQEAwQHBQQEAAECdwABAgMRBAUhMQYSQVEHYXETIjKBCBRCkaGxwQkjM1LwFWJy0QoWJDThJfEXGBkaJicoKSo1Njc4OTpDREVGR0hJSlNUVVZXWFlaY2RlZmdoaWpzdHV2d3h5eoKDhIWGh4iJipKTlJWWl5iZmqKjpKWmp6ipqrKztLW2t7i5usLDxMXGx8jJytLT1NXW19jZ2uLj5OXm5+jp6vLz9PX29/j5+v/aAAwDAQACEQMRAD8A901C6ktY4zEqFnfb83ToT/SqX9o3n9yD8jU+r/6u3/66/wDspqjXKoupUneT0fT0RrdRitCf+0bz+5B+Ro/tG8/uQfkagoq/Yf3n94vaeSJ/7RvP7kH5Gj+0bz+5B+RqCij2H95/eHtPJE/9o3n9yD8jR/aN5/cg/I1BRR7D+8/vD2nkif8AtG8/uQfkaP7RvP7kH5GoKKPYf3n94e08kT/2jef3IPyNH9o3n9yD8jUFFHsP7z+8PaeSJ/7RvP7kH5Gj+0bz+5B+RqCij2H95/eHtPJE/wDaN5/cg/I0f2jef3IPyNQUUew/vP7w9p5In/tG8/uQfkaP7RvP7kH5GoKKPYf3n94e08kT/wBo3n9yD8jR/aN5/cg/I1BRR7D+8/vD2nkif+0bz+5B+Ro/tG8/uQfkagoo9h/ef3h7TyRP/aN5/cg/I0f2jef3IPyNQUUew/vP7w9p5In/ALRvP7kH5Gj+0bz+5B+RqCij2H95/eHtPJE/9o3n9yD8jR/aN5/cg/I1BRR7D+8/vD2nkif+0bz+5B+Ro/tG8/uQfkagoo9h/ef3h7TyRP8A2jef3IPyNaFjcPc2okcKGyQQvTg4rIrS0r/jwH++/wD6EahRcK0VzNpp7/IbalBuxHq/+rt/+uv/ALKao1e1f/V2/wD11/8AZTVGrpfxKnqvyRMvhj/XUKKKK3ICiiigAooooAKKKKAKGq+eYYkt3KSPIACDjsazBa6sZmiFydygE/P61qakNywDZvzKPlzjPBqmluPtsi/YFOEX5d/TrVLYl7lUQ6qVmP2k4iJDfP7ZroISTBGSckqKxVgGy8/0IfKx53/d4FbNv/x7Rf7g/lQwiVdT1rTtHWFtRu47cTP5cZf+JvQe9Gpa3pukCA6heR24uH8uLf8Axt6D3rgfjIwSz8PuxAVdSQknsKh+Ls8ZHhaLeN7agjhc8445qVr99inp91zvtV8TaJobRrqmp21q0gyiyPgkeuKn0/WdN1WyN5YX0FxbLndJG4IGOufSvPfGfhDWm8VR+K9Ghs9RaO3EcljdrkEAc7fwrH1zxJDqXwa1GfRtN/sthdLDeQR9EJYbsEY4PH50m7J/11Gldo9LtPGfhu/vlsrXW7KW5Y7VjWUZY+g9a0LrV9Psb23s7q7jiuLgExRucF8dcV42vgzxRrvhTS47S08NW9vGsc9vd229ZuBnJbJGT3461q/Emw/tDxX4Nsbt2HmkpMY2wT03YI9eaprW3nYlPS/kem6ZrWm6ykr6beRXSRP5btEcgN6Zq/WfpOiaboVqbbS7OK1iJ3Msa4yemT71oUhhRRRQAUUUUAFFFFABRRRQAVpaV/x4D/ff/wBCNZtaWlf8eA/33/8AQjWEv48fR/nEtfA/l+pHq/8Aq7f/AK6/+ymqNXtX/wBXb/8AXX/2U1RpUv4lT1X5IJfDH+uoUUUV0EBRRRQAUUUUAFFFFAEc0Ec6hZFyAcjnHNQ/2dbZztbJ77z/AI1aoouFip/Ztrz8jc9fnPNWlUKoUDAAwKWii4WMnxF4b03xTpbafqkTPCWDKUbayN6g1zKfCTw6kMCtNqMk0EySpcSzhpBt6LyuAvsAK7yihaBucprfgDTtc1N9QbUdWsp5FVJPsV15auAMDIwe1X9M8I6LpOgSaLb2gaylz5qyneZCepYnqa3KKPIDhbf4UaFazqYr7WFtVfetl9sPkg5z93Gf1rc1jwnYa1rOl6pcy3KT6axaFY2UK3+9kEn8CK3qKLhYKKKKACiiigAooooAKKKKACiiigArS0r/AI8B/vv/AOhGs2tLSv8AjwH++/8A6Eawl/Hj6P8AOJa+B/L9R16oaW0DAEGbof8Adap/Ih/55J/3yKhu/wDX2f8A12/9laqmuX8+n28TwFcs+DuGe1KlFOpO66r8kOTaiv66mj5EP/PJP++RR5EP/PJP++RXOLq+qz6a8ttGJZllC4WPPy4Paol1PX8DzXs4Hb7scxCs34E1s4QWrsZqTex1HkQ/88k/75FHkQ/88k/75FPXO0Z645paOSPYfM+5H5EP/PJP++RR5EP/ADyT/vkVJRRyR7BzPuR+RD/zyT/vkUeRD/zyT/vkVJRRyR7BzPuR+RD/AM8k/wC+RR5EP/PJP++RVPWtZtNA0qbUr7zfs8WN3lRl25IAwBz1NXIJkubeOePOyRQy5GDg0ckewcz7h5EP/PJP++RR5EP/ADyT/vkVmab4k07VtX1LS7V5Ddac4S4DJgAkZGD3rXo5I9g5n3I/Ih/55J/3yKPIh/55J/3yKkoo5I9g5n3I/Ih/55J/3yKPIh/55J/3yKkoo5I9g5n3I/Ih/wCeSf8AfIo8iH/nkn/fIqSijkj2Dmfcj8iH/nkn/fIo8iH/AJ5J/wB8ipKKOSPYOZ9yPyIf+eSf98ijyIf+eSf98ipKKOSPYOZ9yPyIf+eSf98ijyIf+eSf98impdRyXctsufMiVWbjjBzj+VLPOtvGHdXILBflXJ5OKOSPYOZ9xfIh/wCeSf8AfIo8iH/nkn/fIqSop51t0DOrkFgvyrk5JxRyR7BzPuL5EP8AzyT/AL5FHkQ/88k/75FSU13SNdzsFHTJOKOSPYOZ9xvkQ/8APJP++RUGnAC2YAYAlk/9CNW6q6f/AMe7f9dZP/QjWLilXjZdH+cS024P5fqF3/r7P/rt/wCytWd4li820h/eRIA/WSQIOnqa0bv/AF9n/wBdv/ZWrjPiF4W1bXp7SfTsTJEhRoS4XBz94Z4//VTo/wASp6r8kKavGP8AXU1dMja1s50ma6hIlX/j3XcTx9DxVDU4W+33Hm2jzve4+yucgr+H4itrRNHvLDw5Z2Ut40dzGoDyIA3r8vI6DNGsadf3M2nG1fLwlt0zYG0nbg4/A9KzxtP2lO6V2v8Ahi8NLknZl+NJrXRNjsfOjgOWB7gV5bY+Kdbl/Z+uNek1KY6ovmYuTjcMS4HbHSvWoIpBZpFcuJJNuHbHDV50/wAHoDpF3osfiPU49HmdpI7IBNsbE564yQD2roirRt5Izb1+ZR8Y6z4ltIfD1yt5qVroUtoGvbzT4BLKspHBYEHC49vWq/iLxtdWPhnwza6Tr11f/wBq3DLJqcNsHn8tTyFjA++MgYx2rtdS8IX91Hax2Pie/wBOjhtlt3jhjRkkAz8xDA4PNUm+FukL4V0/Rbe6u7eXT5vtNvfIw81ZSclumOfSr7+v6krp6foctp/ifxFDpfiyFrjWJrS105rmx1DULI28qyBTkcqAcHBrpvh0viTU9MsvEGta158V1aL5dlHGAqdMMT1LHHP1q/F4NvZNH1XT9T8S3+oi/tmt98yIPKBBBKgDrz3q/ZxQeC/CllZbL29is41gBt7ZpZGA4B2ICaNvw/X/AIAf1+RlfFXVL3Rvh1qV9p1w1vdRmLZIuMjMig9fYmsLXNX17VfFXhrwtpmrSaaLmwN7dXSIGdgB0GeOo/Wt7WI7P4i6Be6AYdX09JQjNNc6fJD91g2AXABPFO17wBDrMuk3lvql3p2paZH5UV3bAbihGCCDxQvPv+n+YPy/rY534aW91a+PfG0F7ci6uEnhDzBQu/5ODgdDjFepVy/hfwVD4Y1TVL+PULm7k1Eo0puMFtyjBOR1z1rqKb2Ql1CiiikMKKKKACiiigAooooAKKKKAMI20tz4ivUW5lgQQxlvKwGJ+bHJB460xru6js5oWnZpLe8ji83oWUlev4HFXp9Lke/kvLe8eCZ1VOFDDA9QetINHQWfkGd2dplmklYDLsCD/ShAREXGo6pdRC7mt4bYKoEJALMRnJyDVVbq8XT3MlwzSrfrEXHGV3AY/KrN6lvDqLyx6qtlM6DzVbaQwHQ4bv71DpdiLvS2HmPsa7MyOw5cBsg/jihAyUrc3muXlt9smhgjSNsREA5Oe5BwOKpXRmn0kxzXMrNBeiLeDgsNwwT781uw2Yi1C4u95JmVFK46bc/41Xk0hJLS4gMzAyzecHA5RuCP5UAy9BF5EQj8ySTH8UhyTUOn/wDHu3/XWT/0I1LbxyxQhZpvOcdX2hc/gKi0/wD492/66yf+hGsJ/wAePo/ziWvgfy/UZqD+U9q+1mxN0UZJ+Vu1L/aC/wDPrdf9+TTrv/X2f/Xb/wBlap5JY4gDI6oD0LHFZRjUdSfLK2q6X6ItuKirr+rlb+0F/wCfW6/78mj+0F/59br/AL8mpjdW4TeZ4tucZ3jGaT7daf8AP1D/AN/BWns638/4f8Enmh2/Ei/tBf8An1uv+/Jo/tBf+fW6/wC/Jq5RR7Ot/P8Ah/wQ5odvxKf9oL/z63X/AH5NH9oL/wA+t1/35NXKKPZ1v5/w/wCCHNDt+JT/ALQX/n1uv+/Jo/tBf+fW6/78mrlFHs638/4f8EOaHb8Sn/aC/wDPrdf9+TR/aC/8+t1/35NXKKPZ1v5/w/4Ic0O34lP+0F/59br/AL8mj+0F/wCfW6/78mrlFHs638/4f8EOaHb8Sn/aC/8APrdf9+TR/aC/8+t1/wB+TVyij2db+f8AD/ghzQ7fiU/7QX/n1uv+/Jo/tBf+fW6/78mrlFHs638/4f8ABDmh2/Ep/wBoL/z63X/fk0f2gv8Az63X/fk1coo9nW/n/D/ghzQ7fiU/7QX/AJ9br/vyaP7QX/n1uv8AvyauUUezrfz/AIf8EOaHb8Sn/aC/8+t1/wB+TR/aC/8APrdf9+TVyij2db+f8P8AghzQ7fiU/wC0F/59br/vyaP7QX/n1uv+/Jq5RR7Ot/P+H/BDmh2/EoPdQyHL2Nwx/wBqAmni/UDAtboD/riauUUclb+f8P8AghzQ7fiU/wC0F/59br/vyaP7QX/n1uv+/Jq5RR7Ot/P+H/BDmh2/Ep/2gv8Az63X/fk0umtutC2CMyOcEYI+Y1bqrp//AB7t/wBdZP8A0I1mozVePNK+j6W6xG3Fwdl2/ULv/X2f/Xb/ANlasvxT/wAecH/XT+lal3/r7P8A67f+ytWX4oBNnBgE/vO30raj/En6r8kRU+Bf11Mmztba70mWO6meJBMpDKpY5waovpunLZXEq3cplQsEXyzhsdOcVs6LI0GnzE3K22ZR8zrnPHSoJbhjpN7H/aMbbmf935Yy+T2+tdJjY60OqQB2OFVck+2K5X/hZ3gv/RM6/bj7XgxZVx1OPm4+TkH72K6Wf/kHy/8AXI/yrwGy0+0H7NV1N9nj82S4d2faMkiXAOfoBWd9/KxrbRHs1l438NajrjaLaaxby6guf3K55x1w2MMfoTTNY8e+FtB1FdP1PWbe3ujjMZDNtz03FQQv44rhfEtnbWfiD4Ym2gjiIuAmUUA7di8VlW2q6T4X1DxzYeKIJDe6hO72oa2aT7TGyYVVIBHehu3yv+Fv8xLX8Pxv/kdp8QvFV7ojeGJtM1COG1vdSiiuJNqMrwnrywOBjuMVv6V4x0HxFFejRtVhuJLVT5mFbKcdcEAke44rxzV7K80z4cfDyDV7eaSWLUkkkg2Fn8vczBdvU/L2rf0u+svEXxb1DV/D8bnTINGaC5mELRq8vOBggcgY/KnLS69fyBa2fp+Ze1Pxjq1v8NNL1ew1+K+uZ9QSB72KzEayIZCpXY68ccZx2rutZ8WaJ4cS3/tfUEt5JhlE2s7t6kKoJx74xXisH/JA/D3/AGF1/wDR7VseK1u9J+LEup3+tTaNYXOnxx2199kSeMYA3RncrBeQT2603o7ef6CX9ffY9j07UrLV7GO90+6iubaUZSWNsg1arifhlYWFloV5Jpuqy6lb3F48pneDygXON21cAYz6DFdtQwQUUUUhkT3MMdzHbu+JZQSi4POOvPSkN1As7wF8SInmMMHhfXNUtaiP2aO7T/WWkglHuOjD8iapQ3Uo0y/1iNMvM/7vIziMHaDj8zQBqW+q2V1N5MM2ZMZCsjLke2Rz+FINVsjMIRPmQuY9oUkhgcHPHH16VjGQSa1pZXUGvPmfJCrtX5T3UfpV/QkUf2g4UbmvJMn15oAtS6tZQ3P2d5/3uQCqqzYPuQMD8aqrrEVvfX0d3PhY5FEahCSBtBPQZ6nqah0i6t7OOe2u5UiuftDlg5wXyeCPWrOnIv8AauqtgbjKgz7bBQgLhvrYWgu/OUwEZDrzn8qbBqVpcQyyxS5WIZfKkFfqCM1g213Ja6fbxJKtvFLdSq85AIjAJx14596dAwe61crcvcr9lH71gBnhumAAaQGwNYsWDlJt+yPzThTjbjPXGM+3Wmwz6hc6dDMiQJLL8xD5winkcdz09KoNFjwOFjXBNoDx34yauXmq2+n6fBJuTdMAIVZsA8dz2FU9Lgug2PUbiOS9guhEZbeLzQ8YIVgQeoJ46UunTalcxwTzTWflugdkSNgwyPXdUdhLp4huGkvbe5mkBe4ZWDcdMYH8IqrOum/aLP8Askw/afOX/j3P8H8W7HbHrSAufatQuL26jt5rSOOGQIBJGxY8A9mHrVie6mtrq0SXYYpv3bMAQQ+Mjv0PNUr/APsJvtBnNv5/O7HEm7275qKTzzoulJcbvtBni+91655/ChAzoKq6f/x7t/11k/8AQjVqqun/APHu3/XWT/0I1hL+PH0f5xLXwP5fqF3/AK+z/wCu3/srVZIB6gGq13/r7P8A67f+ytVqil/Eqeq/JBL4Y/11E2LjG0Y+lJsT+4v5U6ityAxximeTF5fl+Umz+7tGPyp9FADDFGSpKKdv3cjp9KHhikYM8aMR0JUGn0UANZEYgsikryMjpSLFGgISNVB64GM0+igCPyItgTyk2g5C7RinPHHIMOisB2YZp1FACKiou1FCj0AxS0UUAFFFFAAQCMEZFIFAXaAAPSlooAaI0XGEUY54FKFC5wAM88UtFADTGjMCUUkdyKUAAkgAE9felooAbsQrtKLt9MUBFAwFHTHTtTqKAGlFaMxlRsIwR2xVe0so7W0S3J81I8hN4yQOwq1RQAxYo1+7Go+gpVjRDlUUH2GKdRQA0xoW3FF3euOagltBNew3DuSIQdiY43Hv+VWaKACqun/8e7f9dZP/AEI1aqrp/wDx7t/11k/9CNYS/jx9H+cS18D+X6hd/wCvs/8Art/7K1UPEV1Pa2sLQSNGS+CR9Kv3f+vs/wDrt/7K1Zfin/jzg/66f0oo/wASfqvyQqnwL+upRt5tXv8ATJPss7tOso5LAfLg+tU2bxIltLcG5fy4iQ53rxjrVvSIhLpsytay3I80HZHJsI465yKryW6DS7xv7NuQVZ8SGfhOe43c4rqMjs0OUUnrgU6q8/Gnyf8AXI/yr560+ymm+DL+K38QamNUsZXFvtu2CJtk4XbnknOcnnms77+RpbRH0bRXkmvala+J9V03Sjput6hqkenpcTx2V/8AZYkDgHLEsAT/AI1neGD4m8TfCTW9Nsb6caha6lJbwGW5/eGNdrGPzM9eSM5/Snrr5f52Eun9dLntlFeMeG4mu9K8R6DpP9r6N4oFoqtFf3rSoCejI2TjPTPuKi8J2Ns13f8AhnU7bW9N8QzabICLi/eaKbt5iHccEEZFDBHtlFfPv9p6r4j8KaXbxXFwl5oGnzXV0EkILyRS7FVvXKox5rTuPE2pXUnjbxdp80jJp9jDaWYDEqjEKXfHTI3E59qTdrsaV7I9vorw+5sJPCeleEvEem63qNxf31xClys120iXAkHzfKTjvWhFpN14o+LXivTJ9XvrbTYBbytBbyld7FBgZ7DqcDrVW1t6/gTfS567K/lQvJjO1S2PpWJ4R8Tw+LtCGqQW0luhmeLZIwJypwTxXndnpr+LvHnisajq+oQJo5WCzht7lohGoX75A65963vgoNvw8Rd+/F7cDf8A3vnPNJa/dcb/AFPRKKy9W3281nfoTthk2yj1RuP0OKri6jMmpajIXMCf6PGEPJxwce5Y4/CgDcormYYpLLWNP2WzWyzl1dTcGQuNueQe9WNKskubi6uJ3kcxXknlLvIVefQdfxoA3qrW92Li5uYQhBgcKTnrkA/1rK02zi1QS3t2ZHmE7BR5jARhTgAAHHaiHToL7VtTNx5jKsihUEhUA7BzwetAG9RXN29yraPBaTLNcySTPFGokKlgpPVs9MUWwktpNVtvL8lFtw6xiUuFJDcgnpQB0ZIAJJwB1NUv7VhNmtykU7pIxWNUTLP7j2+uKxxarB4Xa/3yPdSWgBdnJwCBwB0FbivBYadGWYJDEgAP4UNWBDLfVIbhJjslikhG6SKVcMB61FZ6wL1o9lheokgyJHjAXHrnNR2tpJefa7udWhe6j8tU7onOM+/OajZbvR47QC6E8G9ITG0YBAPAIIoAsTaysdzLBHY3k5iIDNFGCucZ9as/bUFxDA8ciNMm5CwGMjqvXrVSSwuoZLme1vvLMjeYUeMFc4A5PXHFVri7a70vTL4rtkM8ZwPc4P6E0IDdqrp//Hu3/XWT/wBCNWqq6f8A8e7f9dZP/QjWEv48fR/nEtfA/l+oXf8Ar7P/AK7f+ytS3ljBfoqTqSqnIwcUy+bY9tIQxVZcnapOBtPpTv7Rt/8Apr/35f8AwrONanTqTU5Jard+SKcJSirK/wDw5Cmj2scBhjMsaltx2SEHP1FRnQLMoyF7ko33l89sH681a/tG3/6a/wDfl/8ACj+0bf8A6a/9+X/wrT63Q/nX3on2U/5SS5X/AEKZVGf3bAD8K8g+HPwz0jVPBdhca5p95FdrNI0lu8kkSvhztLpxnjH4V63/AGjb/wDTX/vy/wDhR/aNv/01/wC/L/4ULFUE2+dfehunNq1mYWreAdC1jV01SZLqC7WIQl7S5eHeg6K20jIpsHw90C10O60e2iuILO5uftTCKdlZXwBlWHIHArf/ALRt/wDpr/35f/Cj+0bf/pr/AN+X/wAKPrVD+dfehezn2Zzln8OPD1jaX8CJdu98qpPcS3TtKQpyAHJyMGp9B8B6J4e1J9RtVupr1o/KE93cvMyp12gseBW5/aNv/wBNf+/L/wCFH9o2/wD01/78v/hR9aofzr70Hsp9mY+l+CdE0e81W6tIHEmqZ+07nyDnOcDt1NO8P+C9E8NaLc6RYWzGzuWZpkmbfvyACDntgVrf2jb/APTX/vy/+FH9o2//AE1/78v/AIUvrVD+dfeh+zn2ZzGl/DDwvpOpQX0FrO72zbreOa4eSOE+qqTgVtWXhrTtP8Q6jrkCyC91BUWcl8qQowMDtxV3+0bf/pr/AN+X/wAKP7Rt/wDpr/35f/Cn9aofzr70L2U+zMDVfh74d1jXG1i5tplu3AWUwztGswHTeAfmrU8PeHdO8L6WNN0uNo7USNIEZs4LHJx7Vb/tG3/6a/8Afl/8KP7Rt/8Apr/35f8AwoWKoL7a+9B7Ob6MmuIEubeSCQZR1KnFV00y1TTf7P2EwYwQTyec5z65p39o2/8A01/78v8A4Uf2jb/9Nf8Avy/+FH1qh/OvvQezn2ZDFo1vHPFOZJ5ZYjlHlkLEcYx9Oas21pHaCUR7v3kjSNk9z1pn9o2//TX/AL8v/hR/aNv/ANNf+/L/AOFH1qh/OvvQeyn2ZC+j27XLTpJcQl23OkUpVWPqRVqG1jgmnlTO6Zgz5PcDH9Kj/tG3/wCmv/fl/wDCj+0bf/pr/wB+X/wo+tUP5196D2U+zIW0a1aBIgZVKSNIjq+GVj1wfxpYdItofPKmVmnTZIzuWLDnnJ781L/aNv8A9Nf+/L/4Uf2jb/8ATX/vy/8AhS+tUP5196D2c+zA2MR0z7AM+V5XlDPXGMVSXSmvbC1ivnmjlt+A0UmNxHAbirv9o2//AE1/78v/AIUf2jb/APTX/vy/+FP61Q/nX3oPZT7Mhh0lIhIDd3sodSpEs5YD3HoaIdHginSZ5bmdo+UE8xcKfUA96m/tG3/6a/8Afl/8KP7Rt/8Apr/35f8Awo+tUP5196D2U+zIJtGgnkdnnu9khy0QnYIfwouLN5bqyhjiCWlufMJBGMjhVA/Wp/7Rt/8Apr/35f8Awo/tG3/6a/8Afl/8KPrVD+dfeg9lPsy1VXT/APj3b/rrJ/6EaP7Rt/8Apr/35f8Awo0/P2UnBGZHIyMHBY1mqtOpXjyST0e3qiuWUYO67fqWqKKK6zIKKKKACiiigAooooAKKKKACiiigAooooAKKKKACiiigAooooAKKKKACiiigAooooAKKKKACiiigAooooA//9n/4Qx3aHR0cDovL25zLmFkb2JlLmNvbS94YXAvMS4wLwA8P3hwYWNrZXQgYmVnaW49Iu+7vyIgaWQ9Ilc1TTBNcENlaGlIenJlU3pOVGN6a2M5ZCI/PiA8eDp4bXBtZXRhIHhtbG5zOng9ImFkb2JlOm5zOm1ldGEvIiB4OnhtcHRrPSJYTVAgQ29yZSA0LjQuMC1FeGl2MiI+IDxyZGY6UkRGIHhtbG5zOnJkZj0iaHR0cDovL3d3dy53My5vcmcvMTk5OS8wMi8yMi1yZGYtc3ludGF4LW5zIyI+IDxyZGY6RGVzY3JpcHRpb24gcmRmOmFib3V0PSIiIHhtbG5zOnhtcE1NPSJodHRwOi8vbnMuYWRvYmUuY29tL3hhcC8xLjAvbW0vIiB4bWxuczpzdEV2dD0iaHR0cDovL25zLmFkb2JlLmNvbS94YXAvMS4wL3NUeXBlL1Jlc291cmNlRXZlbnQjIiB4bWxuczpkYz0iaHR0cDovL3B1cmwub3JnL2RjL2VsZW1lbnRzLzEuMS8iIHhtbG5zOkdJTVA9Imh0dHA6Ly93d3cuZ2ltcC5vcmcveG1wLyIgeG1sbnM6eG1wPSJodHRwOi8vbnMuYWRvYmUuY29tL3hhcC8xLjAvIiB4bXBNTTpEb2N1bWVudElEPSJnaW1wOmRvY2lkOmdpbXA6ZTRlMDMyMWMtOWY2YS00Y2NlLTk1OGEtNjM5OGQ3Y2U3YjAxIiB4bXBNTTpJbnN0YW5jZUlEPSJ4bXAuaWlkOmYxNjY3YTA0LWVhMjYtNGYzMC04ZmJlLTFjMjI0NDY5OGRlMSIgeG1wTU06T3JpZ2luYWxEb2N1bWVudElEPSJ4bXAuZGlkOjMxNmEwZDA3LTg4NmEtNGU4MS04Njc3LWQwYzQ1OWFkYjIzNyIgZGM6Rm9ybWF0PSJpbWFnZS9qcGVnIiBHSU1QOkFQST0iMi4wIiBHSU1QOlBsYXRmb3JtPSJMaW51eCIgR0lNUDpUaW1lU3RhbXA9IjE2NDk3NDQ0MTU3NTAzNDkiIEdJTVA6VmVyc2lvbj0iMi4xMC4zMCIgeG1wOkNyZWF0b3JUb29sPSJHSU1QIDIuMTAiPiA8eG1wTU06SGlzdG9yeT4gPHJkZjpTZXE+IDxyZGY6bGkgc3RFdnQ6YWN0aW9uPSJzYXZlZCIgc3RFdnQ6Y2hhbmdlZD0iLyIgc3RFdnQ6aW5zdGFuY2VJRD0ieG1wLmlpZDowNGY3NDA0NC0yZTgzLTQ4ZTUtYmM1Mi0xNDExNjZiYjFkYzMiIHN0RXZ0OnNvZnR3YXJlQWdlbnQ9IkdpbXAgMi4xMCAoTGludXgpIiBzdEV2dDp3aGVuPSIyMDIyLTA0LTEyVDEyOjIwOjE1KzA2OjAwIi8+IDwvcmRmOlNlcT4gPC94bXBNTTpIaXN0b3J5PiA8L3JkZjpEZXNjcmlwdGlvbj4gPC9yZGY6UkRGPiA8L3g6eG1wbWV0YT4gICAgICAgICAgICAgICAgICAgICAgICAgICAgICAgICAgICAgICAgICAgICAgICAgICAgICAgICAgICAgICAgICAgICAgICAgICAgICAgICAgICAgICAgICAgICAgICAgICAgICAgICAgICAgICAgICAgICAgICAgICAgICAgICAgICAgICAgICAgICAgICAgICAgICAgICAgICAgICAgICAgICAgICAgICAgICAgICAgICAgICAgICAgICAgICAgICAgICAgICAgICAgICAgICAgICAgICAgICAgICAgICAgICAgICAgICAgICAgICAgICAgICAgICAgICAgICAgICAgICAgICAgICAgICAgICAgICAgICAgICAgICAgICAgICAgICAgICAgICAgICAgICAgICAgICAgICAgICAgICAgICAgICAgICAgICAgICAgICAgICAgICAgICAgICAgICAgICAgICAgICAgICAgICAgICAgICAgICAgICAgICAgICAgICAgICAgICAgICAgICAgICAgICAgICAgICAgICAgICAgICAgICAgICAgICAgICAgICAgICAgICAgICAgICAgICAgICAgICAgICAgICAgICAgICAgICAgICAgICAgICAgICAgICAgICAgICAgICAgICAgICAgICAgICAgICAgICAgICAgICAgICAgICAgICAgICAgICAgICAgICAgICAgICAgICAgICAgICAgICAgICAgICAgICAgICAgICAgICAgICAgICAgICAgICAgICAgICAgICAgICAgICAgICAgICAgICAgICAgICAgICAgICAgICAgICAgICAgICAgICAgICAgICAgICAgICAgICAgICAgICAgICAgICAgICAgICAgICAgICAgICAgICAgICAgICAgICAgICAgICAgICAgICAgICAgICAgICAgICAgICAgICAgICAgICAgICAgICAgICAgICAgICAgICAgICAgICAgICAgICAgICAgICAgICAgICAgICAgICAgICAgICAgICAgICAgICAgICAgICAgICAgICAgICAgICAgICAgICAgICAgICAgICAgICAgICAgICAgICAgICAgICAgICAgICAgICAgICAgICAgICAgICAgICAgICAgICAgICAgICAgICAgICAgICAgICAgICAgICAgICAgICAgICAgICAgICAgICAgICAgICAgICAgICAgICAgICAgICAgICAgICAgICAgICAgICAgICAgICAgICAgICAgICAgICAgICAgICAgICAgICAgICAgICAgICAgICAgICAgICAgICAgICAgICAgICAgICAgICAgICAgICAgICAgICAgICAgICAgICAgICAgICAgICAgICAgICAgICAgICAgICAgICAgICAgICAgICAgICAgICAgICAgICAgICAgICAgICAgICAgICAgICAgICAgICAgICAgICAgICAgICAgICAgICAgICAgICAgICAgICAgICAgICAgICAgICAgICAgICAgICAgICAgICAgICAgICAgICAgICAgICAgICAgICAgICAgICAgICAgICAgICAgICAgICAgICAgICAgICAgICAgICAgICAgICAgICAgICAgICAgICAgICAgICAgICAgICAgICAgICAgICAgICAgICAgICAgICAgICAgICAgICAgICAgICAgICAgICAgICAgICAgICAgICAgICAgICAgICAgICAgICAgICAgICAgICAgICAgICAgICAgICAgICAgICAgICAgICAgICAgICAgICAgICAgICAgICAgICAgICAgICAgICAgICAgICAgICAgICAgICAgICAgICAgICAgICAgICAgICAgICAgICAgICAgICAgICAgICAgICAgICAgICAgICAgICAgICAgICAgICAgICAgICAgICAgICAgICAgICAgICAgICAgICAgICAgICAgICAgICAgICAgICAgICAgICAgICAgICAgICAgICAgICAgICAgICAgICAgICAgICAgICAgICAgICAgICAgICAgICAgICAgICAgICAgICAgICAgICAgICAgICAgICAgICAgICAgICAgICAgICAgICAgICAgICAgICAgICAgICAgICAgICAgICAgICAgICAgICAgICAgICAgICAgICAgICAgICAgICAgICAgICAgICAgICAgICAgICAgICAgICAgICAgICAgICAgICAgICAgICAgICAgICAgICAgICAgICAgICAgICAgICAgICAgICAgICAgICAgICAgICAgICAgICAgICAgICAgICAgICAgICAgICAgICAgICAgICAgICAgICAgICAgICAgICAgICAgICAgICAgICAgICAgICAgICAgICAgICAgICAgICAgICAgICAgICAgICAgICAgICAgICAgICAgICAgICAgICAgICAgICAgICAgICAgICAgICAgICAgICAgICAgICAgICAgICAgICAgICAgICAgICAgICAgICAgICAgICAgICAgICAgICAgICAgICAgICAgICAgICAgICAgICAgICAgICAgICAgICAgICAgICAgICAgICAgICAgICAgICAgICAgICAgICAgICAgICAgICAgICAgICAgICAgICAgICAgICAgICAgICAgICAgICAgICAgICAgICAgICAgICAgICA8P3hwYWNrZXQgZW5kPSJ3Ij8+/+ICsElDQ19QUk9GSUxFAAEBAAACoGxjbXMEMAAAbW50clJHQiBYWVogB+YABAAMAAYADwABYWNzcEFQUEwAAAAAAAAAAAAAAAAAAAAAAAAAAAAAAAAAAPbWAAEAAAAA0y1sY21zAAAAAAAAAAAAAAAAAAAAAAAAAAAAAAAAAAAAAAAAAAAAAAAAAAAAAAAAAAAAAAANZGVzYwAAASAAAABAY3BydAAAAWAAAAA2d3RwdAAAAZgAAAAUY2hhZAAAAawAAAAsclhZWgAAAdgAAAAUYlhZWgAAAewAAAAUZ1hZWgAAAgAAAAAUclRSQwAAAhQAAAAgZ1RSQwAAAhQAAAAgYlRSQwAAAhQAAAAgY2hybQAAAjQAAAAkZG1uZAAAAlgAAAAkZG1kZAAAAnwAAAAkbWx1YwAAAAAAAAABAAAADGVuVVMAAAAkAAAAHABHAEkATQBQACAAYgB1AGkAbAB0AC0AaQBuACAAcwBSAEcAQm1sdWMAAAAAAAAAAQAAAAxlblVTAAAAGgAAABwAUAB1AGIAbABpAGMAIABEAG8AbQBhAGkAbgAAWFlaIAAAAAAAAPbWAAEAAAAA0y1zZjMyAAAAAAABDEIAAAXe///zJQAAB5MAAP2Q///7of///aIAAAPcAADAblhZWiAAAAAAAABvoAAAOPUAAAOQWFlaIAAAAAAAACSfAAAPhAAAtsRYWVogAAAAAAAAYpcAALeHAAAY2XBhcmEAAAAAAAMAAAACZmYAAPKnAAANWQAAE9AAAApbY2hybQAAAAAAAwAAAACj1wAAVHwAAEzNAACZmgAAJmcAAA9cbWx1YwAAAAAAAAABAAAADGVuVVMAAAAIAAAAHABHAEkATQBQbWx1YwAAAAAAAAABAAAADGVuVVMAAAAIAAAAHABzAFIARwBC/9sAQwADAgIDAgIDAwMDBAMDBAUIBQUEBAUKBwcGCAwKDAwLCgsLDQ4SEA0OEQ4LCxAWEBETFBUVFQwPFxgWFBgSFBUU/9sAQwEDBAQFBAUJBQUJFA0LDRQUFBQUFBQUFBQUFBQUFBQUFBQUFBQUFBQUFBQUFBQUFBQUFBQUFBQUFBQUFBQUFBQU/8IAEQgAzwFAAwERAAIRAQMRAf/EABwAAQACAwEBAQAAAAAAAAAAAAAEBQMGBwIBCP/EABoBAQADAQEBAAAAAAAAAAAAAAABAgMEBgX/2gAMAwEAAhADEAAAAf0/83eq+ZuAAAAAAAAAAAAAAAAAALX6eEX5m9V6XhAAAAAAAAAAAAAAAAAAFr5ruFV6XhAAAAAFdaseYE+tpUSAAAAAAAAAALXzXcKr0vCAAAAANa0yr7VF1TS7pfm8MkXyTSo0pZY6wdsp+OkXWnTq2AAAAAAtfNdwqvS8IAAAAApr0wzAlVm1rf8ANsPdNt3059W0rp2G26a502Wn6Q0zzxYAAAAAC1813Cq9LwgAAAACFNcMhKiZMTzLO+sa026qt0pZ4bVW+NlnfpEgAAAAABa+a7hVel4QAAAAAAAAAAAAAAAAABa+a7hE+ngAAAAAAAAAAAAAAAAAAJfzNxael4QAAAAAAAAAAAAAAAAABV+a7hZel4OZ642C0bDTotp9AAAGom3GnRG4zIAAAAAAhE0iEsiwkzH1Pg9lX5ruFj6Xg5Jth0XHfnPgPT9L9j8Hl/fz/azoMTucxW651HPt+jN8OSV0hZ21PXH9P10AAAAAAGqROW1ZNLQ7VirWCvghJ3NFX5rvEb0vDxWHZr0ovKfc3L0PyuBbVXz1rHe62w2G9flNO6Q4XKBnbFrl+iK3AAAAAAGtROG1ZFLx70qovsE5+omKnaEVfmu8WPpeGlL0hc2szoy+yAAGl1nYr0sosAAAAAAAABQVmwvWfEgCr813AAAAAAAAAAAAAAAAAAAAC09Lw4UD4Z0gAAAAAAAAAAAAAAACr813Cx9Lwci2w2Ot6O9eq4bZEgDScdbns5avHXXTqYAAAAAKktgAVxDrPuY8Wr6reTMZJidE1fmu4WPpeDkW2G4V0o7V6Rjr+XqaVN6X+dqm0e7IFq2+2WxYb6Nhp0Xr5e85agCopao0zkVtHRHuk0nxLzMT6WiTWPdZ1mwrNdaMMxNrPm0Y4nYyr813Cy9Lw6Xple1vXzGz0vy4Ix521CZ2S0arem12idnetpbddstwpcAIazLND2SLxEpb7asqJiQ9ki8QaTCLmUKYn1nFMRjY01fmu4WnpeEAAAAAAAAAAAAAAYzIADzBMek1fmu4WnpeEAAAAAAAAAAAAAAAAAAVfmu4WXpeHn+mOWZq5jp2O3sAAAAAFfSzXOwrYAARiSADGYTNCJMZon5KQj0mr813Cx9Lwci2w6DnrR2ru+enEaXt9sq/n3sdM8muWpY77PrlVUvNzvq+lNrmPVJ5rTTs/dxbfy9WOYyojxMC0SazXylzFtWYhAtGaJl0nXbrC2fjPS0tWMbEmr813Cx9Lwco2w2uulJavR8dfyxTSXDnsx1foy1WsVHP073rhrsWu4tr9q5NHeOeeCWd06+XfuTq0e9JNL+prP0RM5+2iVE11Z9TWfo+ZzSJ2aa0qbyIrrMkTsZV+a7hael4QAONy7JAAAAAAAAAAAAVxYgA8xMK1Z8TV+a7gAAAAAAAAAAAAAAAAAAALT0vCAAAAAAAAAAAAAAAAAAAP//EAC8QAAEDBAIBAgUEAgMBAAAAAAQAAwUBAgYVFDQkBxIREyAwMhYiQFAhNSMlNjf/2gAIAQEAAQUCJf47GycWycWycWycWycWycWycWycWycWycWycWycWycWycWycWycWycWycWycWycWycWycWycWycWycWycWycWycWycWycWycWycWycWycWycWycWycWycQz/IYk+j/TRnRk+j9x85oe/bDrbDocmwm3+NGdGT6P3DLGbzG2g632tB/OjPZSiezH5WW5fl36VtyPMRscZh85dkZLI80GgCYXPGpGRnsxax+Yx3OWsklvuxnRk+j9y+rlDmLiPnWXEcsH3e5H3Us9WfV1633ZViFckHhMrl4udKbPe9SHsLnj5X1KatIydlhsdv7sZ0ZPo/cdEsdv17dFr2/iyxaxRZRgo+SEkeljJAuQYhWachsAbj5LJMJEyJ6KwRwKQyLDt9L/AHozoyfR/pozoyfR4by4by4by4by4by4by4by4by4by4by4by4by4by4by4by4by4by4by4by4by4by4by4by4by4by4by4by4by4by4by4by4by4by4by4by4by4by4byjOjJ9H+mjOjJ9G78diSpByR+f/ANirfx+uZycOCMX6pF/Uv3nS7WSE2RRx9EkUFZp/mi99PcozoyfRv/CttaK35lLqfJ+RF+/gReQHkeosdkB7/qMBlk/kUnl+XHQagsvOHyUPJ8nmJQO120TOJ02KnMnySYfymG2FPVT70t8zYXOlR5DJV/PGvONa2JFYSQKIbJq4UEWyyRfLqM6Mn0Zw1yOiYCfNMlHbG7X5hyweXEJoYPIjSeN5/i4Urd6g5UyRklmSYfJVGxujJUvgMcUHka9QI4ozIMlAk4LNoseWM9RvvSdj3NduclCGWLrpAIh4Idtu93HSm77pGRbuvIureFKKM6Mn0b7KOWhQYMc8nAmXX6U+H1kY26+/Hh1AG/h3WSSBEoEN9EZ0ZPo+avNXmrzV5q81eavNXmrzV5q81eavNXmrzV5q81eavNXmrzV5q81eavNXmrzV5q81eavNXmrzV5q81eavNUZ0ZPor5zaq9Zavntf0cZ0ZPo3/AII+GcKurDOUBb/D6Mym38ex6COvk4abNlxjZDKShM6+5IF3C0+ipfm3nke6spZrWjDL7yz3WSR3yHLAi6GMKM6Mn0b/AMEZaL8K2i6xv8HYu+b9ToHHb38rwsl7HZTH8WuzKDvmyJz0lkcYuDwjJj75R+a/+uzcpZOZj6Zkm0f+iVHqSCYVzo87i3ORNfYXCgWEh2D2yp0sLawLIAtR9kjcM8/E19hcKBYSHFfvIOMoJZbFV1JDpkZYSC86WGU/aZH/ALJFRnRk+jWnxpoHE8wXWlY8yoltPhaBixQudxGLFAZpC4iQDk9uAz0U2VgdWsHJ9PJ0gCfwl44qQxYovOpTDZFifx0OYGt+kKKvGNdDIbNDBdYKjBbgg3AiGSiBCCmZIW4wd0Mhs0MF1gqMFuCDC8aSbDkmyaUOqO4GWaiKG0cEDvbeif8AlvUZ0ZPo/wA6rdt130XW0upbbSy1RnRk+j/TRnRk+jd/i3dEqQlyhyN+b8La/G37khIMRYceexKB/U8Q2P8ATVy225wplq66+2yy08a+50plithTLttt1L7VGdGT6N/4J7l/Iu5elb/AzN5WzK8RzEqWk5fIsrjbJDPrBcNx2ZyM8gPOp6fKfyuQBypjPC3czFzl2+Y/X+Q3AZJndY7HQcwkb2ZbLJ2cxP0//wDGyJDggpx3HCfqX7QjHHXQTzJBtw0h4qWvesFdMMEqVUlBGOOugnmSDYfkyd4AbVltjn6bZIBtdP8AbSVAeEepE1+VeozoyfRv/H5LiLoKq2j66z8H5nQ+qOO1MyHJgWQZCFgTAQ/THEPa3mWTlwhzuasmM4zcJeL6f4xjz0t6e25bVvDcwiXYT04ymMdlsRZyqruBen//AI1yyjlgFL3yjLmaSkVSykhAf6uwi2LOkSLCmZ3pGXM0lIqllJCA/wBXFfsIelhTiLZQa4eQMalGH5McRwOvLlI/98kozoyfR+mNx89j1G/kVD+Bv0XfGtoQlA2FGdGT6OzGWzGWzGWzGWzGWzGWzGWzGWzGWzGWzGWzGWzGWzGWzGWzGWzGWzGWzGWzGWzGWzGWzGWzGWzGWzGWzGWzGWzGWzGWzGWzGWzGWzGWzGWzGWzGWzGUZ0f6j//EADwRAAADAwYMBAYCAgMAAAAAAAABAgMEERIhQVKh8BATFCQxMjRTYpGx4SIjUdEgMGFxgcFCUDNAQ4Ky/9oACAEDAQE/AWDLHNCREYl33thjEu+9sMYl33thjEu+9sMYl33thjEu+9sMYl33thjEu+9sMYl33thjEu+9sMYl33thjEu+9sMYl33thjEu+9sMYl33thjEu+9sMYl33thjEu+9sMYl33thjEu+9sMYl33thjEu+9sMYl33thjEu+9sMYl33thjEu+9sMYl33thjEu+9sMYl33thjEu+9sMYl33thjEu+9sMYl33thjEu+9sMYl33thjEu+9sMYl33thjEu+9sMN2WJaGiIcdoTej+nftoVegOO0JvR80zIhKISiBHH/XftoVegOO0JvR804RnEwmCcDXyySfr7wEnwGsI8TMmhzEFHJnBlJTKUFHI0hRGSCUVJ+3uFmSVEkvnP20KvQHHaE3o+bSCiJ4gsD1qM/wAf+gczA/uGRkpglCg0I2JEdAeYSkx+nQNIrZmgNzMnaJfXoQIiIoF85+2hV6A47Qm9HzYCSJIIoYDVFMkxQZGEzM0szoCil6RKimSoKKUUKA08bLF/e3579tCr0Bx2hN6P6d+2hV6A47Qm9AgxrHy7iDGsfLuIMax8u4gxrHy7iDGsfLuIMax8u4gxrHy7iDGsfLuIMax8u4gxrHy7iDGsfLuIMax8u4gxrHy7iDGsfLuIMax8u4gxrHy7iDGsfLuIMax8u4gxrHy7iDGsfLuIMax8u4gxrHy7iDGsfLuIMax8u4gxrHy7iDGsfLuIMax8u4gxrHy7iDGsfLuIMax8u4gxrHy7iDGsfLuIMax8u4gxrHy7iDGsfLuIMax8u4gxrHy7iDGsfLuH7aFXoDjtCb0f079tCr0Bx2hN6METBxBMmplKIvkr8DPGHowNPLkx/l39vnnMUcBzYdPwP20KvQHHaE3owlpnHjlJkaoeIY1UkN/AtBJp9g38CmZFSG0ENTZ6CKkFFDHGLKJhpFBJXHSGslm2NPL9/oIlSSl6Q28Lsay0hpBmhPqq/wCg8RLExvrfPVqfkHolAy8SSIRJRzAtZRHQI+XKBzFKC9JfbA/bQq9AcdoTej4HYjWwUkg0QbJUgw2KXIWVAbHLWzUWi5BRkmKVTlQEEancmcYGRx7BVBQDxO8yi0Q9sDad1NJaQ2LGJQZHOnv7hscvFGRaO/zznTD6g9WT6iMFpMQk/YFrrjeYf8ZF9grU/JBVB4H7aFXoDjtCb0fATVaUyCOb5BnEEUP9SmYF6n8L9tCr0Bx2hN6BmnFYM04rBmnFYM04rBmnFYM04rBmnFYM04rBmnFYM04rBmnFYM04rBmnFYM04rBmnFYM04rBmnFYM04rBmnFYM04rBmnFYM04rBmnFYM04rBmnFYM04rBmnFYM04rBmnFYM04rBmnFYM04rBmnFYM04rBmnFYM04rBmnFYM04rA/bQq9AcdoTej+nftoVegOO0JvRhNMRJmj8TNJKjH0DNUtMTC5mcU6wbeWhCip9/mnqmfwnNAfQJnmEZokDmIgWkfTA/bQq9AcdoTejCcBNDA8KNK2cNJlD9/oNfKakSP5e0RiyyxDMtCi9vcM1ZQ2NCtEYB1iSmiPQgwSTZmZK+thhRmbicfUw8/4mf3/AGG0UqSzLRAKgTXwaDL4Uz+E6QkzJBnToGqRENCiCpzUVAVrSRoQoK1FH6DQQ0KIKnNRUBWv+CExTmEnpM6RCaYRlEQOYy+oVrx+mB+2hV6A47Qm9GCSJxA9GBt5ikGVAbeY0SsqC/QWZm3S1TQXt7CZC8Yz0hh5coz0mExQiCdJ6Qac2xJaQ28xCElR7hclpBR6SHilRo+JU5g54GNJkYpMwc84/iogeqZeoOeA0mRikzCtYj9f0FTngnhDBOowc68D9tCr0Bx2hN6P6d+2hV6A47Qm9H9O/bQq9AcdoTejBKMGoxKP5xJNWgJUSpy+OiPx6cP0wv20KvQHHaE3owzieGBpBmpMaStCos1klVINMpRpQGPmJUZ/xEqURGikNIJaGyLSQWZpZIaeum/5IN/K0USY/wDYKT5yWRekTH+SOKoCPMYqWnSXUJ81oRI1Z5wyVFZmz0T9Aw1T+59TEIxCTIylAtE40HAHSRA5ph/BUQeg1YNBwB0kQVrEXp+wUTMIhFRlonGhM4PQQ0GDmWeB+2hV6A47Qm9GE4CjA8pNSmcPT9A1JavDIqE6b/kIlY0ya/i/3DvK8w030BrJ8MjWDSEVJbcwzSbV1Wg/v+vYFnJPB1tH4uYZNCW8tGp0xK/5MMc2jL+toYEZMGhnSHMyJKY+n6DuRsVGg9M8PzEMNU/ufUwRwOIUUnwfWwKohoB66YD+SvuFF4pQPUUD1FfYKohoB66YD+SvuFa/IKm8IL0IRgRiECIKOJlCgK14fTA/bQq9AcdoTej4m/jUzNNHt/snPD4SH1PA/bQq9AcdoTegZC8VegyF4q9BkLxV6DIXir0GQvFXoMheKvQZC8VegyF4q9BkLxV6DIXir0GQvFXoMheKvQZC8VegyF4q9BkLxV6DIXir0GQvFXoMheKvQZC8VegyF4q9BkLxV6DIXir0GQvFXoMheKvQZC8VegyF4q9BkLxV6DIXir0GQvFXoMheKvQZC8VegyF4q9BkLxV6DIXir0GQvFXoMheKvQZC8VegyF4q9A/bQq9H9T//xABFEQAAAwIEEgYKAgMBAQAAAAAAAQIDEQQFIVMGEhMUFiUxNVRjgZKhoqOy0dMQIzJBYfAgIjAzQlFxscHhUJEVJEBS4v/aAAgBAgEBPwGMYZ/j4KqE0r3OkyuFfRpgW0SK+jTAtokV9GmBbRIr6NMC2iRX0aYFtEivo0wLaJFfRpgW0SK+jTAtokV9GmBbRIr6NMC2iRX0aYFtEivo0wLaJFfRpgW0SK+jTAtokV9GmBbRIr6NMC2iRX0aYFtEivo0wLaJFfRpgW0SK+jTAtokV9GmBbRIr6NMC2iRX0aYFtEivo0wLaJFfRpgW0SK+jTAtokV9GmBbRIr6NMC2iRX0aYFtEivo0wLaJFfRpgW0SK+jTAtokV9GmBbRIr6NMC2iRX0aYFtEivo0wLaJFfRpgW0SK+jTAtokRdDP8hBUwmlc98mVwojvW1ybxfw9Dl62WXeMUR3ra5N4vakTxSmKUwZO/56HL1ssu8YojvW1ybxe1J7pBKJQroY9bTeASdM0JmFSNDZJlMJTTP8ASqZVKkglNO+lO4EqJS1JPuLiEJNSDWftqHL1ssu8YojvW1ybxe17gbhI4H0QPtNMv2DKWElk+4aEaW5tEhmZNnl3+TEFpqRbvHeDJzNpTiDERwpx+H5BmZm8/bUOXrZZd4xRHetrk3i9q8UwpgZv6CTSqpkgjcojIH7xTQu8JVSPpSugk0qqZISdLL3hl1bWq/TR7ehy9bLLvGKI71tcm8X8PQ5etll3jFEd62uTeIVSHTSc8+WKpDppOefLFUh00nPPliqQ6aTnnyxVIdNJzz5YqkOmk558sVSHTSc8+WKpDppOefLFUh00nPPliqQ6aTnnyxVIdNJzz5YqkOmk558sVSHTSc8+WKpDppOefLFUh00nPPliqQ6aTnnyxVIdNJzz5YqkOmk558sVSHTSc8+WKpDppOefLFUh00nPPliqQ6aTnnyxVIdNJzz5YqkOmk558sVSHTSc8+WKpDppOefLFUh00nPPliqQ6aTnnyxVIdNJzz5YqkOmk558sVSHTSc8+WKpDppOefLFUh00nPPliqQ6aTnnyxVIdNJzz5YqkOmk558sVSHTSc8+WKpDppOefLFDl62WXeMUR3ra5N4v4ehy9bLLvGKI71tcm8XQ4gTgqEMEqpDUT/Yo6xpUiu9DPrad3w/rj7cpTd0FKT/AE6HL1ssu8YojvW1ybxdKnuNw6qprqr6oIFT1uinuiD+uxWpV0j/ACYYesxaLO6R/kMSUtkTS68G5o3Nmg3JIM3NKZLpS0hlTNGCV/34+ZQulNZ0lwQf14TSHcdxDJ7VSz7k+fyINSmTc0+ez7dPbP6BMp0oe5majBvQUo/8eIurNITKdKEdk/r0UOXrZZd4xRHetrk3i9CMFJZQxCzLu4hg2KEMyaJ7wwUaErZGV0/2GPVsGie/yYSl5kpEnzC1EmEqaOek/LwnvN4YSQNKTu/rog3qwqmO47iGB1JS0mUiv1wDBNTqxGcp/wDzc9umRRn4BPapg57M0/UGdOQK4zcC7avoE9vIYR3p8eihy9bLLvGKI71tcm8XoLg7Jo0JqopSFz0yJxOBm/8A5HPJxgz+Xo0OXrZZd4xRHetrk3iFvMVri3mK1xbzFa4t5itcW8xWuLeYrXFvMVri3mK1xbzFa4t5itcW8xWuLeYrXFvMVri3mK1xbzFa4t5itcW8xWuLeYrXFvMVri3mK1xbzFa4t5itcW8xWuLeYrXFvMVri3mK1xbzFa4t5itcW8xWuLeYrXFvMVri3mK1xbzFa4t5itcW8xWuLeYrXFvMVri3mK1xQ5etll3jFEd62uTeL+HocvWyy7xiiO9bXJvF0koU0rvSWo0mnxMNkEzWaSCJWjldkMOtU0I/h/XtSlUSfRKV/gHyPMKkcHSygpTMHITx4l0UOXrZZd4xRHetrk3i6SeJX9EGQSmS6a4R6Xn+wx65gamnwm77l+BVVKgSmneRu+/ANSrZiS0XXPELL3K/n+xCFGwbEae+7/XnIGaSTGB0vy4iCdtt57iDBymZtFXft54gnqYvX2i9FR0rlfIGkjaEXddHaMzByszFxx94T2aYF6zRIT20l8wUpg5WZi44+8J92QlP1SB/DS9wLtER94KR4KUj8An3eU+ihy9bLLvGKI71tcm8XRTCQPK70MOrZrQfef5DHq2KmZ95v+/EM0EUGUwX3nx4iVaCZtZSDfrTQ64n98QpzRpTLuFc8/QIX/tG3V5uhh1Smhn8X6DOmZEaC7Jj1aVxXfSTImUFI8h8BpIGb3ApCcCkURgpFJV8gUjyHwGkgZvcE9h3yCZCcD7nAnPphKJEkCkQRH9eihy9bLLvGKI71tcm8X8PQ5etll3jFEd62uTeL+HocvWyy7xiiO9bXJvF0UpAiIUpe2Uok3QpJpkP07pu9O50+PTQ5etll3jFEd62uTeLpkEj+hlTNUKMrpHo8uCaVozqiO4EulSSmgb9UtKC7+DwZEimJfcEUxsyancMIIltWjN9y55/sQfrkvV4mWT9BK/9c2yvm4vP9f2D6p1W7wrq26Warh/oL6pmZtO08pPr5INkOSRNLry+/wCRCO2X0L7EHuMn3AZHTEgHdkuAz9SmIOuGdwFLKC94lwLtEnoM/UpiDrhncCOw/wCYNxJCvhJXg8XTkCfiDnl4ApUEZ/ToocvWyy7xiiO9bXJvF0k8Sv6IMqlZNH3H/kUq2MFafNXF4aUpMiUyynl4CF0prQlXyL7BkaiSuqdnuDMlFSmwDVRMYWS0XDk86Qv/AFlMEl3E7+yeIQzqbBkzT8Lj85A2/wBqlqfhodwDQyVDGTvp9hCyMzMy7j/IhJk3SS03PV0OEI7ZfQvsQMnk4JOm6zwdlCXSvug31NTwru+gT2aUJJzROUJ94j6hLpX3Qb6mp4V3fQJ92Xg8J/8ARg5LoIvWI/kHvCScRv7wn3eU+ihy9bLLvGKI71tcm8XpQf1GS0qumf5/6Skf4+iY8C6KHL1ssu8YojvW1ybxCyOK53QrgLI4rndCuAsjiud0K4CyOK53QrgLI4rndCuAsjiud0K4CyOK53QrgLI4rndCuAsjiud0K4CyOK53QrgLI4rndCuAsjiud0K4CyOK53QrgLI4rndCuAsjiud0K4CyOK53QrgLI4rndCuAsjiud0K4CyOK53QrgLI4rndCuAsjiud0K4CyOK53QrgLI4rndCuAsjiud0K4CyOK53QrgLI4rndCuAsjiud0K4CyOK53QrgLI4rndCuAsjiud0K4CyOK53QrgLI4rndCuAsjiud0K4CyOK53QrgLI4rndCuAsjiud0K4CyOK53QrgLI4rndCuAocvWyy7x/xP//EAEMQAAAEAwIIDAUCBQQDAAAAAAABAgMEERIFIRMiMTNCgaGxEBQyNEFDUWFxkqLhBhUjMJEgwUBQUnPRFmJy8CRTsv/aAAgBAQAGPwJTkqpdA5v6xzf1jm/rHN/WOb+sc39Y5v6xzf1jm/rHN/WOb+sc39Y5v6xzf1jm/rHN/WOb+sc39Y5v6xzf1jm/rHN/WOb+sc39Y5v6xzf1jm/rHN/WOb+sc39Y5v6xzf1jm/rHN/WOb+sc39Y5v6xzf1hLkqZ9Ac1b/wCTt694c1b/ALtK5z8BlV+BlV+AZoyF/Dt694c1b/unhlUlSUg5U4dM8UKI3DolcYdJs5pqu4EWJxSdUvr4T/bPJIQp8V41hzMs5TKWoxD4Rpb775TQygMwURY8VBOO8k1ZNpEEQqWXI2NXkYaCYCMgnrMi1clD3TuEHBvs/SfKanzXKjVIPQkPCqQ02g14Zast/Z95vXvDmrf91eDJJnQXKD8kInO+8O4iKpFO8P1SI6+jghzUcixf/gWY1PHKtUu64Qj0O/gIxhGLPIf+AxY1ttk4pwySh3S7j7yEUiEiW4SMNR4Nx4plyfA+gQcbH2lCvqh1pMjJNJynPoSLIaXehZJSfnCW2kJbQm4kpKRF95vXvDmrf92szUR5MU5A8Zy//cJ1OT/5A6Z333nwIiSfXCRSSlWkpz1AiVaLq4uqZxDqaruyUxDutWg9AvsowZLa6doRHxkc9aUUjkqc6NphERhFwsWnI83+4Yioq2ImONk6kIXk2mYgo7jeA4tLEwdVV88s/vt694c1b/5O3r3hzVvGh5vYaHm9hoeb2Gh5vYaHm9hoeb2Gh5vYaHm9hoeb2Gh5vYaHm9hoeb2Gh5vYaHm9hoeb2Gh5vYaHm9hoeb2Gh5vYaHm9hoeb2Gh5vYaHm9hoeb2Gh5vYaHm9hoeb2Gh5vYaHm9hoeb2Gh5vYaHm9hoeb2Gh5vYaHm9hoeb2Gh5vYaHm9g3r3hzVv/k7eveHNW8GM8ofQwuDpLkl3CSoxCHP/AFqcxgU8v2IGGiSdNyMXQ3QmZa/zwfI8G9xujCVyKiUp9v7ffZZMjqdnKXdwONUqI0SmZlcfApxSVKIuhJTPhpmVWWXA3r3hzVvB+AvKQTKISSabmpdMu0P4avjdVwZwnKl0i07LcfqgWWqkNUJuPF6ZT6TFo2Wt+qBaZqQ1Qm45J6ZT6RFtQ9qwVlutOGluCfRevWZCzLOadhmrRiklhYl25pvvvEPZUbaMHbLMSnEiYSnFV2HIWvZlnG0pxmIVKIeIiJlEzKWS/aGSiFVvkgsIoulXSPh9iGdJtqIepcKhKp3p7SuyhmwbEU0w9RW4+4mcukITaZNcbTDGSls8leLl+/AYKVeNKfgGcM8UQy6qjkUmkxGoWr6bRJMi7LhxlLyWkqvQ1RO7vMOxFVLxK7Ml4g22TL6syOogwl18oht46eRTIxFkUUaTIk30FwN694c1bxExDRTcQm4NQ8Q6cSy+dKkq6O8gkjglOqKX1SIgy4pM0kkjMu28wl1JGRK7REWuzZj9pQkU3R/45TMri/wI20Y6AchUxEOaiumlPJkmrJO4Lb/0jFMWtPFi2+RrOV4sKO4um1YmCaS3EwyjnhC/fpDBt/Bx2UlEzOKebpNJ91w+JHH4Z5ht16ba3GzSS8ZWTt4PhtyHhnn22n5uKbbNRIxk5ewNW/AwC7SYcbwbjTXKK6X+AzacbZrkGy5DHLSJBSyKVkn9+DcabNzB1GchDpJh1ppteEUp0pC0KkmSHCSRKlluBQy4V1biLkqQWKesPJJJrWazuTfpCz1EkzSmqZyyXCBNKTUSXZnIsgedNlx1t1JSNspylwN694c1bwaVESkncZH0g3YeGS24elwJeWibichz+w44Vt2m0SjnQ24ilPcWICaVEvRZkeciDI1bCL+ENJLh5f1yOYS0R1Syn2/pb17w5q3jqNo6jaOo2jqNo6jaOo2jqNo6jaOo2jqNo6jaOo2jqNo6jaOo2jqNo6jaOo2jqNo6jaOo2jqNo6jaOo2jqNo6jaOo2jqNo6jaOo2jqNo6jaOo2jqNo6jaOo2jqNo6jaG9e8Oat/By0/kXrSWsZxP5/kbeveHNW8H4cGHStJJoK4/AcZrTTTVLpCfD9MRHQ6W1ut0yJ0jNN5yEFFuklLjzSXFEjJMyFnos6Bbiodxcoha1SwZfnxEBYqG2ThX261KMjr0u/u+6xSRHW6SDn+kodKajpqWqfJCsFArWhN01KJM/AgqLQkzIi5J3BNUBQg8qsMVwQwzD4dZpq5dIXhYbAqLklhJzBOEVJ5FJ7D4G9e8Oat4Pw4PqMuqcoLGTVLIMy7hqOVjSmE+AtaBOKehoZxslPYBUjWRJTcLU+HfmMWiymfqGhC5GrJLePiaz0vLfhYFtTjaXD7BFW3HWjFcfNS8EaV3IkIxUUs3HmXUtYQ8qsZP+RB2+i0Ir5g222osfFSm4iSXYPgeLczjppUrxmgWP/Y/ZYtBm0mrSi4CFPBtw1npnIy6TFowbrcamz0GSoU45Bksi7P0uEnlpxk+JCGbRyooyI/DpCGFNORCkJzTfQXeItlKFtNERGTaz5Iadem5SeIU7k3iKw81NNHQluci8RCsszQWHTK+cg3EMVIdJxM1VHjeIS0405EOEU8G3+4i2UoW00REZNrPkhp16blJ4hTuTeI9w8pvU/gFIq3l3IQXSYOFNclqvUrvnME846iIZIyJRUUmQKIZfJo6KL0VBcLEUqUSa0rSUpkLQbLk1JX+S4G9e8Oat4MZ1P4FDbjRN0yvTeOLYZrB008k5giEdbSnGThX2qEpIzr0e7uFp2u44ycNFIpQlJnWWTLd3C2o+IUy5CxxGlKEmdWu4RMDZNsNNWW+ZzQ6nHTPsu/wHLDgXUG8syUbr1xKVMjPJMQ9knbTarIRKaTRjl3ZLy1j4e4ktpuGswymTpnMyI05Lu4QFtIcZKFYboUkzOvS7u8O2xYMc1CxD5SeafTNCg+q2I1qLdWZUpZRJKP1KcUpJtJngkl0TC4iGU39QiJSXZh95xwlm6RZO0IaWZGop8nxDj8Itv6nLQ7k8RD4RTeEQ6S1SySBIQZEdRHeFxEMpv6hESkuzD7zjhLN0iydoQ0syNRT5PiItk+s+qjv7Qt6cKtxXSuq4uwgdSmEvTupI6ZBKIpbKWSOZpanjfkTYNk0f0uTC4mIWS3lFLF5KSEVFdDq8XwLgb17w5q3/AMelRpI1JyHLJ+kyMpkfQYJKSkRdBcDeveHNW/8Ak7eveHNW8GMqfwKW5U0kfJ7hPFl/xBH912Kil4NhopqVIzl+A1FQq8Iw6U0qkZT/AD+tGEVTUqkvH9KUmoiUrIU8opW6hCuxSpCpSiSntMElMQ0ZnkIlkCJx1Dc/6lSCjQ8hZJymSsgI0nMj6S4G9e8Oat4Pw4PpkzgqNIznkGRnA4PtOqQT4COsaDs9qMWhJYG+mVxGZrOeQRdlWpCIg7Rhyqk2eKZCKi/lEGmAhzOdTs1qSXTl/YMW41DGs3pJS0Z5Fd56hDqjYCC+XvJq4xDOzpu8TEX8ns6DcYh1Um287J1W0hZNnRcOw1DxrMzlM1Jc7Jz7e4fLjZZ+WG+qGS9I66yT49vcLewqGisqzE8tJHhFK7Msu0fOCsRn5PPLhPqSnly/sLOtaBQhxmJdSSidLImRzyHluEdaUdZnErHaZwrKlZxzs6enwEdEP2Q2iyX0UoebXjJvynfeWoWX/a/cwp1siVTeZH2DCtyUpUiQR9MwjAk1OWMpc5B5l5KSdalejIYQtDbSUzktSp3+AcYhEN/T5a3cngIVTyUm6T6bm8hhC322cCpRJOgzmkFxcmu83Jh5l5KSdalejIYQtDbSUzktSp3+Ainj6v6SP3Dq1sokc1KUq8KKlSp8ksp0zDaTheLr0VOM03hCnYdb7RNaLdV8wsmEE2ZctFFJiKhehleL4HwN694c1bwY5CvwPqYbC0FyapZBTJ7jFOTGlMJ8BakWqHdiGUtScwJTUkpJvFt/EEHDuMtHDKbhzcLlLkUtwjkRsJHR3xLjyqrxO/s/IgfmMG5Gwa1qQtDaajLGVeGf9OKjVWOojOIS8WIX/bguIsuGtCzrfJdzTaJVHO//AKQ+H7XiyPj8C42p7tv9yIQVsy+uiP48fbeqX+Baik86tJanUz6ZHduMH8OHZsX82wZw+Dwd2XL2ixYR+55L81l2GdRy2iLhGCm6tkqE9plfIP2Imzoo45hg0OYmIhJaR6hZf9r9zCkKyKKRhmFXkgzMz7/6Qrj08BSWCI5094i8G1gmzSk0lKVwa8T3iK4xNDbp1pcld4CDcbvQcQnokC/uJ3hXHp4CksERzp7xF4NrBNmlJpKUrg14nvEe2eUnqvyDS+7g4Zs+RI/qH39wN5CjW0k6TNKTuHF4aby1KK8knJPeMG8o0HLKaTkYcikJMmcHQSjKVRi0HC5NSU/guBvXvDmrf+q0bUWxKBdZpQ7Wm88XonPo/iSiEqpmmlaZcr9J0nI+gwTZHUeVSu0+BvXvDmreM5sMZzYYzmwxnNhjObDGc2GM5sMZzYYzmwxnNhjObDGc2GM5sMZzYYzmwxnNhjObDGc2GM5sMZzYYzmwxnNhjObDGc2GM5sMZzYYzmwxnNhjObDGc2GM5sMZzYYzmwxnNhjObDGc2GM5sMZzYYb17/5T/8QAKRAAAgEDBAEEAgMBAQAAAAAAAREAITFhQVHR8JEQcYGhIDBAULHxwf/aAAgBAQABPyHai3LVTrHidY8TrHidY8TrHidY8TrHidY8TrHidY8TrHidY8TrHidY8TrHidY8TrHidY8TrHidY8TrHidY8TrHidY8TrHidY8TrHidY8TrHidY8TrHidY8TrHidY8TrHidY8TrHidY8Tei3PVTtYf0/aynaw/a9wK6N6hCRIkiLC/j9rKdrD9rbhuDdmAIUAbcL2hAREMx10gJx1jsh6eL6U+HvP8AGIm9y8KGpQVk/Kj2I3aAMk2HmBHkDch2ZrU7AGYYBw9mQQPxBwLWoWRqPyILxUqVAaaX3/d2sp2sP23A0MtTAGVdZ0ppHAWedawiTuQKlh6DYGIAncqIaEJMTUCUf4YP2Od00IZFaheAxYFI6MFCW3gzKQFSIAGocJTlkDApQfzBmITuChgmBUQPb93aynaw/bQI9RaICCAjcQdYAEDly7g1InYuL9BRQU+As2FRu4uBdeRBpWt2zaK/zCgfAH7lerNKC0NSFaVhsh4GpVk1W9DK8f4B0q5GJ/hU5tK8fv7WU7WH9P2sp2sJh80YfNGHzRh80YfNGHzRh80YfNGHzRh80YfNGHzRh80YfNGHzRh80YfNGHzRh80YfNGHzRh80YfNGHzRh80YfNGHzRh80YfNGHzRh80YfNGHzRh80YfNGHzRh80YfNHaynaw/p+1lO1hDRxdemVFjILA0cABFqwQhsBX9DzghYWBq3Cz9O8JQan+8aVqIUCMv0DKyyM2PoiIOUbQkHff0BTEwBnqBv6drKdrCfZQGCQDZiOaZBRehc7zrZ1f3NX+ctPpS1xHFKtGZDrLAJ6ajcXXOsGig/RJowXTTxBRyjHp2A3fQQr+ROZRKKdPsRGHDagKKhVyLDAbAkBBFVMuOtjalVyGgrKJToNDRuBQAWjrGMHEqsEGzGm4P7yswyJVgUVgzaIUIWtpDmhQhcxgm3BIAdGpWA2sIBShQrQCeUjBYV+IV9W0SqJRoPYCsaCu3p2sp2sIIDeIaJID+G/iIrZMGz4FBg0HBe+kQ5lgIGTGQuoSP/ICeO4Kaq1ddEY+vwlXAQBZqEMJVAFSN0hRvbeWt0tSuuQb2NYrgDAoUAoSzrFbxiJrMjcLb+iOIrBdMDYb7QMKIUkmwATYE1pBeYFBeAAAmtZH76z+F2IUe+0FLVVsiwA1jzMxRVBR1jtsuI9DslLmVsSjUpgZ5LLtH8YLEVzB2ZavaD6drKdrCAviQTAbGUZWIyR7M0+PRSipqg9rawAIBDYfmRJsRLNwivmFmQLpehIH1/ENDqoCCI9rOEe1SXUak/j2sp2sP6dttttttttttttttttttvtZTtYen/Cw0imxCf8AL/0faynawn2XoeuyqOkaO9fon0n4kXmBwJJgEHXeD+nAQLBTJpKjArDRUUaNraU4A3hVho06ftJtKt0O34tVywAGnuTKxMJGibl4YyOczaRgtASKgm6Ucws6UDWohNCBZecCkJxcTbiuPTtZTtYT7L0JM2PGFYqVoUS33V0p9JALCehgfZmVaho10CVTehVRyjDiLr2YTW0dAEvONKKz0CpDzltUAICTqUjxHiztJBAQLARrVGaQvWpO+/Swj/VWQlsZL9oTwJBZIrNNqA/7+NsKf8gjqJBaBWa3tAUrQNQEM4BfFhXUws5i14QWg1cYUba2KkoQxKNiZ7xRgjAgTUMayoM0igDrUBDOAXxYV1MLOYteEFoNXN+p8QpAlmjcUJAbesXEpSQGBoxWewZUG94QPVpkqjeY6AZqenaynawiluFP+whGiimNiOsYXwieZggKUYQLhQVFGvWN+IKJtFNViYS/cchNQJAW2Jhgb1D6CCbSjBh7YPnEFCFAgPaM1RrwKkFQFphpSkNSotKigmUd1K8AbwqwUadY9QgxNKsA7A2vrKBWSuGwKAl5/K4AaG9lw3DosKxBEdSzIJA6AbWh60kSVKkYJgpSNQ0EQI3P0KdBB1K+dEC4Th0WFYgiOpZkEgdANrQ9aSJKlSM0LBj3lPtLIyAxHECgi9G5kFsLrE4IGkU0JsEaXQKIEH3Ese46B0DglZb50gfTtZTtYfz71eOr2H8QNhkQMEQEAZACAHp2sp2sP6ftZTtYQmBcD0ya7ymuBM/1CTHrkA/t0OuevYCZo9c9ewA/mMsFTJZWFPxvV40PsgEXLAFD4ShkyAHvDQeRESfMMjqgBN5g4lMWR7toCIMwRgj07WU7WE+y9DY7/rawUNLo9f8AxE59JDXqqzmARGbAaRvoww0TuTuDcsGOEBYMrUFFWrYhqj0XcQcAb3pHtBGiagCKh0jQRow3AQPEGgMagxdsQAA90XbH155OjkgFN914KrcGnaA6UFqmiq0ZkizSpJCAEUUaiGFFbpMIdCfa8IuRoLIBZgTAelBy8YCnXVRUPRyFZAAamqDgDmP3QJSRmycAbeQlVGN4YApaKE6AIQ4MTHUScO6BCsrN0MAI5Ho+BH7oEpIzZOANvISqjG81nBjFr9pT5QrZqYeOVpyxT9R+IIFZYFR0qQAjCkv6iPcQzj6usB6drKdrCfTM/wClihAaJcWWpKcpoo4E+siG+BfdvsCn7xUpVJRYnWfcSz8xt6HUIKkwYlKrLtYSV3DElO2KJp/4JrGXCE9aEA01qntCUWkFhvP2I9cin1D/AFCAubeNKeT5JT/Q0R/wYvBRo2Wqb4URjHQNgHySlvZTyTJCWMFf0oDwzAYMCOSZTqa+kGOkiRn2aw4mPnUqqszud8ocu1JUrRDWFDJJr7+nQx0kSM+zWHEx86lVVmdzvm+U+IUlgijxBqg8IF2D6CKB1syAg3EiUkcIIfIBKV3XkmwJjATmp6drKdrD8rjPoUKbC64/k1F1wAGnsR+IiwHFQNH2hOLibc1z6drKdrCd/FO/infxTv4p38U7+Kd/FO/infxTv4p38U7+Kd/FO/infxTv4p38U7+Kd/FO/infxTv4p38U7+Kd/FO/infxTv4p38U7+Kd/FO/infxTv4p38U7+Kd/FO/inay/qf//aAAwDAQACAAMAAAAQP/8A/wD/AP8A/wD/AP8A/wD/AP8A/wD/AP8A+WAAAAAAAAAAAAAAAAAAA2AAAAABAAAAAAAAAAAAA2AAAAAB7YGIaWwAAAAAA2AAAAABCWCBJswAAAAAA2AAAAAA0oEocWAAAAAAA2AAAAAAAAAAAAAAAAAAA3bbbbbbbbbbbbbbbbbba3JJJJJJJJJJJJJJJJJJI2eLJJJJI5JJJJJJJJP5I3dMgrI2aZJJJJJJMe3tC2Pxz60YbpJJJJJJFYArS3BD5JJH5JJJJJJJJIlJI222222222222222222222P2JJJJJJJJJJJJJJJJI3dp5JMY5JJJJJJJIF/AI3cB1PTjMZJH9ebFePrqI3LMH3tE7ZJNKLKKKuC/43JJJJJJJJJJJJJJIJJO43JJJJJJJJJJJJJJJJJJI3ONJJJJJJEJJJJJIJuw43d/zUzYbL5RKvaCvPiu43ea0iM3zElc1aaFax8yI3JJLJJJJJJJJJJJIJJBI222222222222222222225JJJJJJJJJJJJJJJJJJJP/EACoRAQABAgMIAgIDAQAAAAAAAAERACExQbFRYXGBodHw8RCRMMEgUOFA/9oACAEDAQE/EMCUzfHAXds/pzGMYxjGMYxjGMYxjGMYxjGMYxjGMYxjGxJRF8MQd+2tRq/p9BorUavyqQ/NBg/59BorUavylUBNlqJ41G8fG1tvKV+k1mmCEcRf1UFcnYXZhN2lBCRQOfku4aEEgcNJ4TbjSoTA58bH2241fWsRqn7cqUiZm/Dzd+bQaK1Gr8rM4pSbUMlqnLPxjvF1WBzEchnUoo7QdQETMYKSLKjqxI42cZpGHaIbB/1JxdtEy7Y3LHYqRkJUNBb82g0VqNX5UrNQqFBg+AIZjDg5cKJUZnDd78zkBCcrxA/VPAdjLgydb8aQQSGHbhS3MSH6RNK3LtcAYbo/PoNFajV/T6DRWo1V6jX1GvqNfUa+o19Rr6jX1GvqNfUa+o19Rr6jX1GvqNfUa+o19Rr6jX1GvqNfUa+o19Rr6jX1GvqNfUa+o19Rr6jX1GvqNfUa+o19Rr6jX1Gug0VqNX9PoNFajVTW+pTtU3CcPw3GEY37fNuU/C6NGr7bcvz4nhIffxcDaT8BM7qGA/GGPxoNFajVTh8RhK1OW23/AM/VbkT761kMAnq1oYLDf6X9VuaBtXThlPO00BSFgDCbT9SXtmsBFIQEUJmSgcpTHG+ymLJEIbIxLjmC9EEphfjnWwY6E4YU50nA+0/ZZywvRYuSWHdGPeMnL86CbsUUiyiTc58qRzo6zFCBYTE0ZEzdCdaIBXZOcnepwtoRxq6PNRuvRWg0VqNXwgkNIThT8QqhusU5SU7TRN+GE5JpD0piFlt4AydkpMbynLSkRjudobr8slhKBwUTkAEm5IOFOZ5Kk7CLzOdwj7q7uSXy5vjPSTbPDZQxpk+MxFriTTYaSb8L0yFbTuz/ADmyxh0l/wAmnKGMJ4Z0wHI/dBaLMp33vScgy6KDfJpcgx/ZRlPIR+5oZJrQaK1Gr+DOEscPdKt3+c2YjhUhZmelsteP/IoSFt9BlSVZf46DRWo1f08kkkkkkkkkkkkkkkkkkmg0VqNXxJUlSf0eg0VqNVOHwl1SoMP47lk/VPvJ6Kfqrm9Kx53tvoZrcPRb8tmfD+NvadDP9Ul4N+n3QmqyTPImrsRQELip9E1dBsbaFlRCMPxoNFajVTh8bQqMi9GFMtoJbCJRxgU8LwF4QXVicYmo7EBec/skTUIYigZSDPKS25lvZK2RI4MW5M8oolrEgyJOrdnGalfKBO2JJ5xXnbtTZCBdqoP1eN1tq0IZSZGxIw4y8QHGf4gngCPOdZLXU270F1gy2tIQyJNHGrlzNuN3WkgGADxmmGhl+yhKLokd9KgLE9f8pCGRJo41cuZtxu61jmzQvRBlnkFJJry6kVOecMKhuUv3Qc4aisLaHS3xoNFajV8T20mAatXfCyOYZ4Jb7oZMgfofqnfi1vkOm7pUsOFeMp254ZMTEYwVDHRfuwcgP3UvCBwSssOMLeLUcnxLLvMXi3wpZrcvVaphYKJMzDQB2wOJNAknAAb7y87fX8seYTPNA+sajtAJ1mmVciOuXmNN9uZqDMwRxMvqmVOeHSrs2IqEmYR1mmVciOuXmNN9uZrhoDn4moSmBhu/2jFnDKlSOdpqCCKQE5WDjTETAA+sfjQaK1Gr/vbkP8RRkoAsfGg0VqNX9PoNFajV8gGD88xByXkEvSgVZJTmMPU/m2SwP4tiWmxLRsUoXahiaLsMaEbnxoNFajVTh8Nlq+mjCiarYWarkZBArNMqsJHlPUucGYoUMxKLmBOFsu0tZZ3Sb5C3GR4UMtIsHEN/aMbMUHreODdLczScabpEoDlcLbOZnuaMzKhLKDEc+ODtpzfYcoBcNk78Gi43XY5xj9ZxMXxhpJaLQOFyQ7pPqop8CVuhkNkS5zGNR0kAduIYc4m5x2PxuEAYxakKwCfOdYOaoRWZJpVrjheG7pjUEZkngf7TfJR0kpIQwum6rRvqEVmSaVa44Xhu6Y1wkDz/AMWq55tLgk+u9RBjDFq+NzdCh3LRAGCD94/Gg0VqNVNQ1tKg4qKzDgY2khjeTPAaWOVLkkPFXIvSWdsDapBh/gCiJVxbbSyIz28qmVYkkyiSZ5TjYYhlityExtJg7x245y5pHfBOMSjfMKc7XvUQMy7kw6SutWkCLuEdEHhQly++7Scpm0Y2A6FD1Y5xE76NFAx+4nVoSZVoxYLpLxgi7HxuQhlQSODLoTq1LhGeM58qhJsPO56p679UiBggcE70hjyP2V17UqUbIzxnPlUJNh53PVPXfqsfeaKCk839H7aAzkGFJE3UiKFM2UBdpLxyrC2B1v8AGg0VqNX8s6AX3XGv/Tzho5fv+KBFJoGVJVl+NBorUaq8D3V4HurwPdXge6vA91eB7q8D3V4HurwPdXge6vA91eB7q8D3V4HurwPdXge6vA91eB7q8D3V4HurwPdXge6vA91eB7q8D3V4HurwPdXge6vA91eB7q8D3V4HurwPdXge6vA91eB7q8D3V4HurQaP6n//xAAsEQEAAQMCBgEEAwEAAwAAAAABEQAhMUFRYXGBkdHwoRAgscEwUOFAYHDx/9oACAECAQE/EOuTImRlDETOK9ngr2eCvZ4K9ngr2eCvZ4K9ngr2eCvZ4K9ngr2eCvZ4K9ngr2eCvZ4K9ngr2eCvZ4K9ngr2eCvZ4K9ngr2eCvZ4K9ngr2eCvZ4K9ngr2eCvZ4K9ngr2eCvZ4K9ngr2eCvZ4K9ngr2eCuuTJiFlBMxOP7Y001RJ9aSx/pTTWKFiQUscXqdp+l0Yv4zBNcVCZ6xSREHlDe7DaiiG4l95wFstM0qM/mO16AXDkfnsXeF6tBXJzNlEcYg4tWCIQjOZ/Ecf+w00jOrBNNio2j6YHuxrAaHy/xSb3mHoqJxu8+FJiQR+CQnLEW/RUy8z4noeRtSLG7niE/pf3ikQSP70dJL/2GmjCKlUqTL6M6RN3niTa0dqA/AMvFtrpEba30oKxFsnJU/LRGwcnnZ7luVIiwufPPSjaSYJPMh/O9DfbOrXjP/oo0000UKFChQoUKFChQoUKFChQoUKFChQoUKFChQoUKFChQoUKNNNN4FCN6gabJJ/h5RTw18PA1T6OC58/h2ba/wA90NCfp3CPpNw3YpIY+he59xpuC3vFHGC37njmZ6VyC120+IoZ9BOUH4ClHZUHKRHYoBI7kNLDbWL/ABdpRKEy51g5wY3Q40VdAyOgLvWJ5RxKKtiMtyEAYIhNtS5q0RE2OWnxQ1e5/wDWdCicYzccfsAEaqxhgETEmzJtwYE5x/OVEY/16UiWZFHlo0DQS9igBuYlPmCiMWbJ43aBwRE8r+lIVGijyzVqN9XG32mmijQsZqXsAUte9CqQlngp+q1lQOmUX6o660L3Mx4KrZuExPClvXMhtz2vOtmgxCg8wRhxmTZL0YDjBbdlCI0sv4rTYONcNPpsWzLjr60smYHbL4dWRs7ELEDwWbN0BDxFx/OpzFnzpyzyoRLgEOK+K24r8qcEswF9II61CXAjtLVqaP7VaVx+grBLTI2x95psoO0MvHSY12oAQffFJni5qAERHzz/AOSWA3igYBAEH9gabttttttttttttttttttsabDUNQ7f05poFqhQ5+00Nj4X9VgKK2/DPG/+c5yRQ2Gkjkr9/wCW9MI/B9udpDu6dr0YKD57VlF5iOrFAIKKSALEfM+KxV3akIEkST7jTdhriWpzSPcljkCeQ9UUM2kHOZOUSjdqZdMe3tIY0vvU+8yXWFInN4zu4ghBgIXLzA/MTzmk4lQJvKynlNoxQIECUNhFHSYr49JFlbZ0EscmA53OlMKkkSajMdo6TEwH2pByp8/FaQXwLne1TZZdXQ1702WzCnSMdKcfQX6QHb5ojPlU5BtUgLo9opQXChOjQEQmLcD/AGmy2YU6RjpTj6C/SA7fNW8VXu0y6r8cWiCMIx0/29IdSRPGgszmPioOiFQ9b1iNg+002FDk1es+i1zMRzN+9b6woxEvvZ81cEmbYhfnZ81DnBa2pmEtZ1JjOilJwqWOEfJZVCSq8yYJ0nCb70pg0iD1a5rS2GgjkL9qCKKTGzK/lYxlMUoINyq7Wg6Q9/tSbNO1lAdBXvipnQWaQNWbdtevxQCGgHaptpmeU571AXAM9a4EU/DUzoLNIGrNu2vX4oBDQDtU1nLezjppUt85415FQFZLnOi5mpWGt15eKLnDPdg/ojTSzJ9qCQ0qsv8AXGmmmji/8+OLiUOqwfNIwwwPRJPh+8sHL+vtLsFF2ClMqBbFSTFNiWKRGH7jTS69d2nNIKuL6AU5qsC+7RSmUI9T4RHpdmoGxMCGisRN9beKLfdqLs5OOkT8FY2pm2GHB+eWJqLvAMlhv32vpRTlGXuRMvbbgq8sKcaPP5c0oIq7FNZUPjopwKzGk476TE2xJRL7JVMxcJzGb0k1iA5iF4MHEXtU7oSm2DDmIYvmLXPoORqBh6/7RCZWPNZehvQSyEnbzQNwDnx+Zipl0zHOM9qUamHun4qKjLYeNXnhQSyEnbzQNwDnx+ZismtvYx551atD3vRd5+C/goVdW1QFJewcrtPEqm5wT2YftNNkrYxXYpozZmTszSeDCc4oZYZgMxcTiABurGKsNAJ0gJP6EXlrdJE7IddJx8YrJwC7li0cZ2yTJrTKLMSbG3CMRc0rDIKjExNuGJwanv38m8ClNSiDe58xI41+c8PNuiJZxcWUgdURek44URUsvQu6xLzphLbnaQg3lDkKuPoOmt1ZDIOpI/B3rrS3KNKgLKe1vFYcr8UwnyK8x2pJG34V6nBrrS3KNKgLKe1vFYcr8Ur7sdmosZtDbi8fxUoOqmdMpWoJikx0hDkRNYndP4TTVj0g5Sfw/wDTjaQ7mvb7QogxSkAQBB/4maaaaaaaaaaaaaaaaaaaaaaaaaaaaaaaaaaaaaaaab//xAAsEAEBAAICAQEHBAMBAQEAAAABEQAhMUFRYRAgcYGRofAwUMHxQLHh0WBw/9oACAEBAAE/EPvWCo5R8+P2cgggggggggggggggggggggggggggggggggggggj7VgouUPHj92HHHDNhmSN/8z+4Z/cM5K0aWD/P7KOPsjqKVaOHowYKhLZKvxXFtkgtSx9nWPd8rnlcHr7P9lJB2rJ930zxXN1jvmfDJ3loJ9BaVfgoEFXrnGBFcSTbIA5DpnGP0w8MiGkJuBKaSSZWClkAZSMg2Cw73+VHU0PiYCKjgQZOp3reuN6/yxx0rQcoDog7xrSTEFM4bJgWVWYThGc843ud6Q9S/L2JQFmCgPmofHC6Ad2CE8L9Bzm++9AGwFAj3rs7uPBzytDZAbqomC6FbNZJwT6M3qDmWDKlGeTm2mSzTH0XAevDAEAGj/MHHVpJVIFSz44zZqTV6+cAoMBuDiubq2oaA5fh7FXvSPldDYwD1sI6Hu9ErIFSjcOMplaHZtQJvic1L3dNEURBdpOZxhkTLFKtspcBDzAk/wB2BWELSLjHZDX8zz45efT/APCRxxx3z58+fPnz58+fPnz58+fPnz58+fPnz58+fPnz58+fPnz4cccdGEDR+Wf3Z/5gN7vNUiGebgJmjtNwJEF8KYSPEfmm/wBCHkmt22iEOi3xD2f8RZDx3Wl7/XSBZMeYCiadQfYP4Vo1p5p37NxDlxQao84IIgBgj7A0nAbFBHIKO/R9wcf8p4w0M1MD8MqODPanZ4DJ6YD8aFlp8y7X0neAeu/qXfCLJeSD0mzUp8hJcQ5wzSNmtT5CA46nAG0hojtrBMRIzIHRxRLjYcKpJseDlwt2yJdl5MGmqfnOFQikoPIHXKwRCAANCAehlG6F2mjhDWt86MiPMqVRD1TGkhJsrIIo6nB0BgkENfrgGb7awUHMFZ3MEdlom3OKp3vNfv8AKF2hWztcaLQOZTYAxycc+mBdD9zilhgpUvzyDI6KjD1eSwS8OPIIXexU2fHEaM0XFiECnZtu8NBd+0cczzkQUWdnAwnaG2BIwbzdag64S4dTBoA1D/xgX2wyga3S6OfBnHfK4qWa5wrhgM8gAbD2BclExxfyANEga1tusV1mkRROElAbsdMT5qMk0D00JagbYEOXXbYZSQ8PGcNesIwwIlToefZt24JWpgRKgi8YFeRCKkAIFCoZzh3i0LD1SitUC/XANQdCwaaEWFKmXLvD07ZaXaay/dWgtgai7nGQ/MhSbNAxLePtlq1TQGgFZH6ZtD4pcBYSnRctWAYW7A0ermmjfskRHXmuDQZL0+0ccKDylSIOkRiOHVtSGPJdL4j2B1McICoQ1tcneAxFwEPfIlvaEsCDYCmHLjVed3roQcEGvP8AiJV3XC4ZqHxmNOYHFTB1V/bxx/8A/wD/AP8A/wD/AP8A/wD/AP8A/wD/AP8A/wDHHUCujPyT+c0fcYzHjlz8m/nBEEaPf7IOP+U8ez0LnU48E6wo1cjkTXEu/OfjvB7u5e2AGHaUg3MPlOwQBQU6qvrjpFHYrHkqk4ybMWRNvvIZJ5Hy74n6jYq9GXrCb1q09PdG7VuCYZGjqkN4u0cRFFoRrTq4mFCmTRoxH0c5tQD3mNMNzABjJh/IDt85aLJjuOnsQ3Hn0yiog1aK9x78T3Bx/wAp49nKvJ9TyLTV18cMSqr44tf6Uz8d4MIhGTj7WI11sE7xZAisKFwDxhGnEdhrlp1HCQQBQzFFDbXDakVFQRI7xSnm+HugEtuztXNbQnCwY8pFVDeoW10QqYdWn559wxUerICvShTuKiwmLriiBlRQHQCKT3QPMBORtHqxPnjQNY97j8onzwTeRDWAePCv+8NZrhiaJAYMuKiPUfMiAoKrejrIRL4V2Aiq5u8UIeUUul1fGAm8SU9BtcVJ3dOJ6W1Xv1w1muGJokBgy4qI9R8yICgqt6Os7SsHkMD74pVDvv4g5XoxanSb0AFKamGB6JbFIrFOcFv6A+TKDevpgHPPAtNrA+M68BDgu+tD3Bx2NYpXxPYYiIeSpKA5s1huBFmhnfbXjHaanXmGHust78ckvA3ZrmbrFBQdFJ85HyFFYDnQEtHlYvyXCFEXWFSlg7xkgGnJMjSBgBeXDKW7kxHklrOWjAhxv/AB9goVN+FkTL5ym2eQ8OuL36xmIoysG5SCpiMAZ1qDdI0XXPu85uPny41IBOCLpxL2YgLWleOn+hXdMawwaIg2um43xsi4EUHhOshIrrZQ2Izqf8rABb55IqxOZfTFzJVENGh3MadmIC1pXjp/oV3TGsMGiINrpuN8bIuBFB4TrK3rQ8ARPUBlFt8dmAH3HtcJSpBcKMBW7PTNmpZ7U7ADjHI6o5cpyj4TB803Wl7TvauKtFQ9P6zf0/Yhx78GhNyNNlOZ7qcoGEORHkw0PjwXABoP2wcccd+bBPpn9HwcGKeVsHxXIeAvXPjnMAyeU/V82XWMLYbTgc8+3WNLIbHkPfRIO7zcBljt17t8DQoysO2HMzk4ot+Ao5Eeb/lFaDBQubS4AKXAxNV48gi5PdZ27ahg08+MNLw8lwiaT3Bx/wAp49hTgOwT4vUTIboFwRNf7Ez8d4MmeN0LdvCQxYu7k8pFCRBGkyFQSYRxNPcLkENNDtkRZVXjgVbeA+C6qzLFbDLTNADe9TGdkhDqG5E7QLKpgVvfZT4d4RDvEUJTiGvPBOg3S5Q4IsI3bUwB9XNf9ZKg1PQdcHfG8N+oLwSFlS0HTj4BX4UBiiggo2OeL6iCJW2rBt2GffsmuusWBqSINuzXGMiqQVY2BFIrp6xxt0EiNbyLedJkLHLFqhscbHKxruCNTl1G1LfGNxRqOqbFZ3+KmcLIalvuHPnF3NSu4loHcDIzSLHcYA1u+zjIWOWLVDY42OVjXcEanLqNqW+MfFNDwQqerGIEzH2VW5PQHXWUnnEkEQ35fDH3DLEuK6PqzKHydtviQQPvii6EHnTWXvziNTQHp/Tb9wccKZt/iz8k/jGa4UeNj6V++PKu08eUnTn0woCRND8MAcj3zL0oTsQrrCuYKlWcp0FBCuLQ6nJBSZBAFVICJlU9nSMygZ0CKTeIGCtfGXSidxUqXCcZsfhSpKKF5VcdLBoaTM6Ib6rEYaPy6b6DynlmdIl1wbR1k+IFVTDW7Vx86bzQdbWwoaeROxxGSEYy566XxzSmW7QbFA7U6F5z79kCBxOwifRwHEqaD7FU+GUclvIhARvz18so8TLgfOCF3vBMFNQD5doiGI9f8wlOWuCLAM+WfhvDKKS3kQgI356+WUeJlwPnBC73gmCo1BkPMyvtncTH0dwAeKry48SZC4cwYCbBx32mASogICed5NsgUHwgvpkx8w+dMBQCVztZBOFh9Cn6I48u0cMdpW7eJr1L/kBVt1BbdpR3GmvddK0g5aWizxTGREhi1U6r14D/AOTHHGGGGGGGGGGGGGGGGGGGGGGGGGGGGGGGGGGGGGGH/9k=;" parent="1" vertex="1"><mxGeometry x="320" y="130" width="258.16" height="167" as="geometry"/></mxCell></root></mxGraphModel></diagram></mxfile>